<svg width="32" height="32" viewBox="0 0 32 32" fill="none" xmlns="http://www.w3.org/2000/svg">
<rect width="32" height="32" rx="16" fill="#A4D1B4"/>
<path d="M12.0003 21.3334C11.6337 21.3334 11.3198 21.2029 11.0587 20.9417C10.7975 20.6806 10.667 20.3667 10.667 20.0001C10.667 19.6334 10.7975 19.3195 11.0587 19.0584C11.3198 18.7973 11.6337 18.6667 12.0003 18.6667C12.367 18.6667 12.6809 18.7973 12.942 19.0584C13.2031 19.3195 13.3337 19.6334 13.3337 20.0001C13.3337 20.3667 13.2031 20.6806 12.942 20.9417C12.6809 21.2029 12.367 21.3334 12.0003 21.3334ZM17.3337 21.3334C16.967 21.3334 16.6531 21.2029 16.392 20.9417C16.1309 20.6806 16.0003 20.3667 16.0003 20.0001C16.0003 19.6334 16.1309 19.3195 16.392 19.0584C16.6531 18.7973 16.967 18.6667 17.3337 18.6667C17.7003 18.6667 18.0142 18.7973 18.2753 19.0584C18.5364 19.3195 18.667 19.6334 18.667 20.0001C18.667 20.3667 18.5364 20.6806 18.2753 20.9417C18.0142 21.2029 17.7003 21.3334 17.3337 21.3334ZM14.667 18.6667C14.3003 18.6667 13.9864 18.5362 13.7253 18.2751C13.4642 18.014 13.3337 17.7001 13.3337 17.3334C13.3337 16.9667 13.4642 16.6529 13.7253 16.3917C13.9864 16.1306 14.3003 16.0001 14.667 16.0001C15.0337 16.0001 15.3475 16.1306 15.6087 16.3917C15.8698 16.6529 16.0003 16.9667 16.0003 17.3334C16.0003 17.7001 15.8698 18.014 15.6087 18.2751C15.3475 18.5362 15.0337 18.6667 14.667 18.6667ZM20.0003 18.6667C19.6337 18.6667 19.3198 18.5362 19.0587 18.2751C18.7975 18.014 18.667 17.7001 18.667 17.3334C18.667 16.9667 18.7975 16.6529 19.0587 16.3917C19.3198 16.1306 19.6337 16.0001 20.0003 16.0001C20.367 16.0001 20.6809 16.1306 20.942 16.3917C21.2031 16.6529 21.3337 16.9667 21.3337 17.3334C21.3337 17.7001 21.2031 18.014 20.942 18.2751C20.6809 18.5362 20.367 18.6667 20.0003 18.6667ZM12.0003 16.0001C11.6337 16.0001 11.3198 15.8695 11.0587 15.6084C10.7975 15.3473 10.667 15.0334 10.667 14.6667C10.667 14.3001 10.7975 13.9862 11.0587 13.7251C11.3198 13.464 11.6337 13.3334 12.0003 13.3334C12.367 13.3334 12.6809 13.464 12.942 13.7251C13.2031 13.9862 13.3337 14.3001 13.3337 14.6667C13.3337 15.0334 13.2031 15.3473 12.942 15.6084C12.6809 15.8695 12.367 16.0001 12.0003 16.0001ZM17.3337 16.0001C16.967 16.0001 16.6531 15.8695 16.392 15.6084C16.1309 15.3473 16.0003 15.0334 16.0003 14.6667C16.0003 14.3001 16.1309 13.9862 16.392 13.7251C16.6531 13.464 16.967 13.3334 17.3337 13.3334C17.7003 13.3334 18.0142 13.464 18.2753 13.7251C18.5364 13.9862 18.667 14.3001 18.667 14.6667C18.667 15.0334 18.5364 15.3473 18.2753 15.6084C18.0142 15.8695 17.7003 16.0001 17.3337 16.0001ZM14.667 13.3334C14.3003 13.3334 13.9864 13.2029 13.7253 12.9417C13.4642 12.6806 13.3337 12.3667 13.3337 12.0001C13.3337 11.6334 13.4642 11.3195 13.7253 11.0584C13.9864 10.7973 14.3003 10.6667 14.667 10.6667C15.0337 10.6667 15.3475 10.7973 15.6087 11.0584C15.8698 11.3195 16.0003 11.6334 16.0003 12.0001C16.0003 12.3667 15.8698 12.6806 15.6087 12.9417C15.3475 13.2029 15.0337 13.3334 14.667 13.3334ZM20.0003 13.3334C19.6337 13.3334 19.3198 13.2029 19.0587 12.9417C18.7975 12.6806 18.667 12.3667 18.667 12.0001C18.667 11.6334 18.7975 11.3195 19.0587 11.0584C19.3198 10.7973 19.6337 10.6667 20.0003 10.6667C20.367 10.6667 20.6809 10.7973 20.942 11.0584C21.2031 11.3195 21.3337 11.6334 21.3337 12.0001C21.3337 12.3667 21.2031 12.6806 20.942 12.9417C20.6809 13.2029 20.367 13.3334 20.0003 13.3334Z" fill="#002112"/>
</svg>
