<svg width="32" height="32" viewBox="0 0 32 32" fill="none" xmlns="http://www.w3.org/2000/svg">
<rect width="32" height="32" rx="16" fill="#FFB4A1"/>
<path d="M21.4003 19.2999C21.5892 19.3999 21.7559 19.3777 21.9003 19.2333C22.0448 19.0888 22.067 18.9221 21.967 18.7333L21.0003 16.9333L20.3003 18.7333L21.4003 19.2999ZM18.067 18.6666H18.867L20.467 14.6999C20.5003 14.611 20.492 14.536 20.442 14.4749C20.392 14.4138 20.3337 14.3666 20.267 14.3333L18.9337 13.7999C18.8337 13.7666 18.7364 13.7777 18.642 13.8333C18.5475 13.8888 18.4892 13.9666 18.467 14.0666L18.067 18.6666ZM13.1337 18.6666H13.9337L13.5337 14.0666C13.5114 13.9444 13.4531 13.861 13.3587 13.8166C13.2642 13.7721 13.167 13.7666 13.067 13.7999L11.7337 14.3333C11.6448 14.3666 11.5809 14.4138 11.542 14.4749C11.5031 14.536 11.5003 14.611 11.5337 14.6999L13.1337 18.6666ZM10.6003 19.2999L11.7003 18.7333L11.0003 16.9333L10.0337 18.7333C9.93366 18.9221 9.95588 19.0888 10.1003 19.2333C10.2448 19.3777 10.4114 19.3999 10.6003 19.2999ZM15.267 18.6666H16.7337L17.2337 13.0333C17.2559 12.9333 17.2309 12.8471 17.1587 12.7749C17.0864 12.7027 17.0003 12.6666 16.9003 12.6666H15.1003C15.0114 12.6666 14.9309 12.7027 14.8587 12.7749C14.7864 12.8471 14.7559 12.9333 14.767 13.0333L15.267 18.6666ZM10.3003 20.6666C9.83366 20.6666 9.44477 20.4916 9.13366 20.1416C8.82255 19.7916 8.66699 19.3777 8.66699 18.8999C8.66699 18.7666 8.68644 18.636 8.72533 18.5083C8.76421 18.3805 8.81144 18.2555 8.86699 18.1333L10.3337 15.3333C10.1781 14.8888 10.1837 14.4499 10.3503 14.0166C10.517 13.5833 10.8114 13.2777 11.2337 13.0999L12.567 12.5666C12.7225 12.511 12.8781 12.4721 13.0337 12.4499C13.1892 12.4277 13.3448 12.4333 13.5003 12.4666C13.6559 12.1444 13.8725 11.8749 14.1503 11.6583C14.4281 11.4416 14.7448 11.3333 15.1003 11.3333H16.9003C17.2559 11.3333 17.5725 11.4416 17.8503 11.6583C18.1281 11.8749 18.3448 12.1444 18.5003 12.4666C18.6559 12.4444 18.8114 12.4416 18.967 12.4583C19.1225 12.4749 19.2781 12.511 19.4337 12.5666L20.767 13.0999C21.2114 13.2777 21.5225 13.5833 21.7003 14.0166C21.8781 14.4499 21.867 14.8777 21.667 15.2999L23.1337 18.0999C23.2003 18.2221 23.2503 18.3499 23.2837 18.4833C23.317 18.6166 23.3337 18.7555 23.3337 18.8999C23.3337 19.3999 23.1642 19.8194 22.8253 20.1583C22.4864 20.4971 22.067 20.6666 21.567 20.6666C21.4448 20.6666 21.3225 20.6527 21.2003 20.6249C21.0781 20.5971 20.9559 20.5555 20.8337 20.4999L19.8003 19.9999H12.167L11.2337 20.4999C11.0892 20.5777 10.9364 20.6249 10.7753 20.6416C10.6142 20.6583 10.4559 20.6666 10.3003 20.6666Z" fill="#3C0800"/>
</svg>
