<svg width="32" height="32" viewBox="0 0 32 32" fill="none" xmlns="http://www.w3.org/2000/svg">
<rect width="32" height="32" rx="16" fill="#FFB86C"/>
<path d="M16.0003 22.3334C14.5225 22.3334 13.2642 21.8223 12.2253 20.8001C11.1864 19.7779 10.667 18.5334 10.667 17.0667C10.667 16.3445 10.8059 15.6695 11.0837 15.0417C11.3614 14.414 11.7448 13.8556 12.2337 13.3667L16.0003 9.66675L19.767 13.3667C20.2559 13.8556 20.6392 14.414 20.917 15.0417C21.1948 15.6695 21.3337 16.3445 21.3337 17.0667C21.3337 18.5334 20.8142 19.7779 19.7753 20.8001C18.7364 21.8223 17.4781 22.3334 16.0003 22.3334ZM12.0337 17.6667H19.9337C20.067 16.8667 19.992 16.1834 19.7087 15.6167C19.4253 15.0501 19.1337 14.6223 18.8337 14.3334L16.0003 11.5334L13.167 14.3334C12.867 14.6223 12.5725 15.0501 12.2837 15.6167C11.9948 16.1834 11.9114 16.8667 12.0337 17.6667Z" fill="#2C1600"/>
</svg>
