<svg width="32" height="32" viewBox="0 0 32 32" fill="none" xmlns="http://www.w3.org/2000/svg">
<rect width="32" height="32" rx="16" fill="#A4D1B4"/>
<path d="M9.33301 21.3334V20.0001H13.1663C12.9219 19.0556 12.458 18.2417 11.7747 17.5584C11.0913 16.8751 10.2775 16.4112 9.33301 16.1667C9.55523 16.1112 9.77467 16.0695 9.99134 16.0417C10.208 16.014 10.433 16.0001 10.6663 16.0001C12.1552 16.0001 13.4163 16.5167 14.4497 17.5501C15.483 18.5834 15.9997 19.8445 15.9997 21.3334H9.33301ZM17.333 21.3334C17.333 20.8667 17.283 20.4029 17.183 19.9417C17.083 19.4806 16.9386 19.039 16.7497 18.6167C17.2163 17.8279 17.8525 17.1945 18.658 16.7167C19.4636 16.239 20.3552 16.0001 21.333 16.0001C21.5663 16.0001 21.7913 16.014 22.008 16.0417C22.2247 16.0695 22.4441 16.1112 22.6663 16.1667C21.7219 16.4112 20.9108 16.8751 20.233 17.5584C19.5552 18.2417 19.0886 19.0556 18.833 20.0001H22.6663V21.3334H17.333ZM15.9997 17.3501C15.9997 16.6279 16.133 15.9501 16.3997 15.3167C16.6663 14.6834 17.033 14.1251 17.4997 13.6417C17.9663 13.1584 18.5136 12.7723 19.1413 12.4834C19.7691 12.1945 20.4386 12.039 21.1497 12.0167C20.5275 12.4056 19.983 12.8834 19.5163 13.4501C19.0497 14.0167 18.6886 14.6501 18.433 15.3501C17.9441 15.5834 17.4969 15.8695 17.0913 16.2084C16.6858 16.5473 16.3219 16.9279 15.9997 17.3501ZM14.783 16.1001C14.6497 16.0001 14.5163 15.9056 14.383 15.8167C14.2497 15.7279 14.1108 15.639 13.9663 15.5501C13.9663 15.4834 13.9719 15.414 13.983 15.3417C13.9941 15.2695 13.9997 15.2001 13.9997 15.1334C13.9997 14.289 13.8663 13.489 13.5997 12.7334C13.333 11.9779 12.9552 11.289 12.4663 10.6667C13.1997 10.9667 13.8358 11.3973 14.3747 11.9584C14.9136 12.5195 15.3275 13.1667 15.6163 13.9001C15.4163 14.2334 15.2441 14.5862 15.0997 14.9584C14.9552 15.3306 14.8497 15.7112 14.783 16.1001Z" fill="#002112"/>
</svg>
